<svg xmlns="http://www.w3.org/2000/svg" viewBox="0 0 23.35 19.6"><defs><style>.cls-1{fill:#fff;}</style></defs><title>Recurso 7check</title><g id="Capa_2" data-name="Capa 2"><g id="Capa_2-2" data-name="Capa 2"><path class="cls-1" d="M22.85,2.32H21V.5a.5.5,0,0,0-.5-.5H19.33a.5.5,0,0,0-.5.5V2.32H17a.5.5,0,0,0-.5.5V4a.5.5,0,0,0,.5.5h1.82V6.34a.5.5,0,0,0,.5.5h1.21a.5.5,0,0,0,.5-.5V4.52h1.81a.5.5,0,0,0,.5-.5V2.82A.5.5,0,0,0,22.85,2.32Z"/><path class="cls-1" d="M10.63,2.61a.49.49,0,0,0-.45-.29H7.87a.49.49,0,0,0-.45.29L0,18.89a.51.51,0,0,0,0,.48.5.5,0,0,0,.42.23H2.89a.51.51,0,0,0,.46-.3L5,15.53h8l1.66,3.77a.51.51,0,0,0,.46.3h2.44a.5.5,0,0,0,.42-.23.48.48,0,0,0,0-.48Zm1.13,10.05H6.27L9,6.43Z"/></g></g></svg>