<svg xmlns="http://www.w3.org/2000/svg" viewBox="0 0 23.35 17.28"><defs><style>.cls-1{fill:#fff;}</style></defs><title>Recurso 6check</title><g id="Capa_2" data-name="Capa 2"><g id="Capa_2-2" data-name="Capa 2"><path class="cls-1" d="M10.63.29A.49.49,0,0,0,10.18,0H7.87a.49.49,0,0,0-.45.29L0,16.57a.51.51,0,0,0,0,.48.5.5,0,0,0,.42.23H2.89a.51.51,0,0,0,.46-.3L5,13.21h8L14.67,17a.51.51,0,0,0,.46.3h2.44a.5.5,0,0,0,.42-.23.48.48,0,0,0,0-.48Zm1.13,10.06H6.27L9,4.11Z"/><rect class="cls-1" x="16.51" width="6.84" height="2.21" rx="0.5"/></g></g></svg>